<svg xmlns="http://www.w3.org/2000/svg" width="512" height="512" viewBox="0 0 512 512" fill="none">
  <defs>
    <linearGradient id="g" x1="0" y1="0" x2="1" y2="1">
      <stop offset="0%" stop-color="#1a73e8"/>
      <stop offset="50%" stop-color="#10b981"/>
      <stop offset="100%" stop-color="#06b6d4"/>
    </linearGradient>
  </defs>
  <rect width="512" height="512" rx="112" fill="url(#g)"/>
  <g fill="white" opacity="0.95">
    <path d="M128 240c0-61.856 50.144-112 112-112s112 50.144 112 112-50.144 112-112 112-112-50.144-112-112zm56 0c0 30.928 25.072 56 56 56s56-25.072 56-56-25.072-56-56-56-56 25.072-56 56z"/>
    <path d="M96 384c32-40 80-64 144-64s112 24 144 64" stroke="white" stroke-width="24" stroke-linecap="round" fill="none"/>
  </g>
</svg>
